<svg xmlns="http://www.w3.org/2000/svg" viewBox="0 0 1024 1024"><defs><style>.cls-1{fill:#007bff;}.cls-2{fill:#fff;}</style></defs><title>cuas-logo-square</title><g id="bg"><circle class="cls-1" cx="512" cy="512" r="511"/></g><g id="logo"><path class="cls-2" d="M366.46,842q-67.27-40.6-105.32-112.93T223.07,565.41q0-91.36,37.43-163.68T365.19,288.79q67.24-40.59,152.26-40.6,72.33,0,126.25,31.09T742,367.46L678.6,416.95q-62.18-90.08-161.15-90.09-59.66,0-107.22,30.45t-74.23,85q-26.65,54.57-26.65,123.08T336,688.49q26.65,54.57,74.23,85T517.45,804q60.91,0,100.24-20.94t71.06-61.54L756,768.43q-41.87,52-103.41,83.11T520,882.62Q433.69,882.62,366.46,842Z"/><rect class="cls-2" x="471.58" y="168.86" width="88.76" height="140.59"/><rect class="cls-2" x="430.35" y="126.42" width="171.24" height="67.81" rx="1.6" ry="1.6"/><rect class="cls-2" x="292.82" y="239.18" width="78.76" height="113.61" rx="1.59" ry="1.59" transform="translate(-111.03 257.08) rotate(-36.68)"/><path class="cls-2" d="M629.4,405c-3.15,8.34-6.24,16.7-9.45,25q-27.5,71-55.05,142c-3.07,7.93-6.66,15.69-9.2,23.78-7.71,24.47-38.35,35.75-61.1,25.66-20.44-9.07-31.09-28.26-28.21-50.4a39,39,0,0,1,12.1-23.54q28.32-27.37,56.83-54.54,43.59-41.79,87.21-83.55c1.9-1.81,4-3.44,6-5.16Z"/></g></svg>